<?xml version="1.0" encoding="iso-8859-1"?>
<!-- Generator: Adobe Illustrator 19.0.0, SVG Export Plug-In . SVG Version: 6.00 Build 0)  -->
<svg version="1.1" id="Layer_1" xmlns="http://www.w3.org/2000/svg" xmlns:xlink="http://www.w3.org/1999/xlink" x="0px" y="0px"
	 viewBox="0 0 512.013 512.013" style="enable-background:new 0 0 512.013 512.013;" xml:space="preserve">
<g>
	<path style="fill:#1566C0;" d="M440.217,252.585l-16.409,5.973l0,0l-44.287-121.683l0,0l16.409-5.973
		c8.857-3.226,18.654,1.34,21.871,10.197l32.614,89.607C453.64,239.571,449.075,249.359,440.217,252.585z"/>
	<path style="fill:#1566C0;" d="M118.277,238.71l-19.285,10.155c-10.777,6.332-19.148,16.051-23.808,27.648
		c-0.256,0.597-0.427,1.195-0.683,1.792c-3.226,8.985-4.139,18.645-2.645,28.074l-10.581-12.117l-49.237-56.575
		c-0.418-0.41-0.742-0.905-0.939-1.451c-4.506-6.545-2.859-15.505,3.686-20.01c0.998-0.691,2.082-1.246,3.226-1.664h0.085
		c2.799-1.007,5.837-1.126,8.704-0.341L118.277,238.71z"/>
</g>
<path style="fill:#2296F3;" d="M102.405,260.725L83.12,270.88c-2.799,1.655-5.453,3.533-7.936,5.632
	c-5.811,4.89-10.547,10.931-13.909,17.749l-49.237-56.575c-0.418-0.41-0.742-0.905-0.939-1.451l77.225,20.736L102.405,260.725z"/>
<path d="M423.808,267.091c-3.482,0-6.758-2.15-8.013-5.615l-44.279-121.683c-1.613-4.429,0.666-9.318,5.103-10.931l16.409-5.973
	c13.261-4.838,27.989,2.039,32.81,15.291l32.614,89.607c2.338,6.425,2.039,13.372-0.853,19.575
	c-2.893,6.195-8.021,10.897-14.447,13.235l0,0l-16.418,5.973C425.753,266.929,424.772,267.091,423.808,267.091z M390.452,141.977
	l38.451,105.641l8.397-3.055c4.42-1.604,6.707-6.519,5.103-10.931l-32.614-89.607c-0.785-2.142-2.347-3.848-4.42-4.813
	c-2.048-0.956-4.36-1.067-6.528-0.29L390.452,141.977z"/>
<path style="fill:#FDD834;" d="M481.279,200.908l-11.69,4.267l-25.173,9.131l-19.541-53.93l-1.109-2.901l36.863-13.397
	c15.496-5.615,32.614,2.406,38.22,17.903c0,0.009,0,0.009,0.009,0.017l0.256,0.597c5.666,15.488-2.304,32.639-17.8,38.297
	C481.304,200.899,481.296,200.908,481.279,200.908z"/>
<path style="fill:#FFEB3A;" d="M469.588,205.174l-25.173,9.131l-19.541-53.93l12.629-4.608c15.53-5.632,32.682,2.389,38.314,17.92
	l0,0l0.256,0.597C479.956,184.976,477.447,196.948,469.588,205.174z"/>
<path d="M444.45,222.838c-3.482,0-6.758-2.15-8.013-5.623l-20.676-56.78c-1.613-4.429,0.666-9.327,5.103-10.931l36.829-13.406
	c19.891-7.253,41.966,3.055,49.211,22.954c7.484,20.548-2.807,42.623-22.707,49.868l0,0l-36.829,13.406
	C446.404,222.667,445.414,222.838,444.45,222.838z M434.713,162.619l14.831,40.746l28.817-10.487
	c11.05-4.019,16.776-16.29,12.749-27.34c-4.267-11.708-16.52-17.416-27.579-13.406L434.713,162.619z"/>
<path d="M503.474,284.038c-3.482,0-6.758-2.15-8.013-5.615l-26.572-73.01c-1.613-4.429,0.666-9.327,5.103-10.931
	c4.42-1.638,9.327,0.666,10.931,5.103l26.572,73.01c1.613,4.429-0.666,9.327-5.103,10.931
	C505.428,283.867,504.438,284.038,503.474,284.038z"/>
<path d="M456.225,154.24c-3.482,0-6.758-2.15-8.013-5.615l-26.572-73.01c-1.613-4.429,0.666-9.327,5.103-10.94
	c4.42-1.621,9.327,0.674,10.931,5.094l26.572,73.01c1.613,4.429-0.666,9.327-5.103,10.94
	C458.188,154.077,457.198,154.24,456.225,154.24z"/>
<path style="fill:#2296F3;" d="M266.669,104.457l16.887,46.403l30.822-16.273l-9.361-25.719
	c-4.864-13.431-19.703-20.369-33.126-15.505c-0.026,0.009-0.043,0.017-0.068,0.026C267.36,95.036,265.056,99.977,266.669,104.457z"
	/>
<path d="M283.556,159.394c-1.041,0-2.074-0.188-3.063-0.572c-2.304-0.887-4.104-2.722-4.949-5.043l-16.887-46.403
	c0-0.009-0.009-0.017-0.009-0.026c-3.2-8.857,1.391-18.696,10.214-21.956c0.043-0.017,0.085-0.034,0.128-0.051
	c17.843-6.443,37.597,2.79,44.065,20.616l9.352,25.711c1.459,4.002-0.265,8.473-4.036,10.462l-30.822,16.273
	C286.295,159.061,284.93,159.394,283.556,159.394z M274.682,101.539l13.551,37.205l15.582-8.226l-6.809-18.722
	c-3.26-8.977-13.167-13.645-22.169-10.41c-0.111,0.043-0.213,0.077-0.316,0.111l-7.851,2.961L274.682,101.539z"/>
<path style="fill:#37474F;" d="M378.454,348.532c-24.559,9.011-51.771-3.592-60.773-28.151c-0.026-0.06-0.043-0.119-0.068-0.179
	c-0.631-1.724-1.143-3.499-1.536-5.291c-5.615-23.441,7.279-47.359,29.951-55.551c1.306-0.512,2.645-0.947,4.011-1.28
	c23.765-6.443,48.494,6.443,56.831,29.61c0.597,1.587,1.084,3.208,1.451,4.864C414.123,316.106,401.246,340.237,378.454,348.532z"/>
<path style="fill:#607D8B;" d="M353.878,348.532c-1.365,0.512-2.731,0.939-4.011,1.28c-14.942-4.011-26.982-15.07-32.255-29.61
	c-0.631-1.724-1.143-3.499-1.536-5.291c-5.615-23.441,7.279-47.359,29.951-55.551c1.306-0.512,2.645-0.947,4.011-1.28
	c14.916,4.019,26.931,15.078,32.17,29.61c0.597,1.621,1.109,3.243,1.536,4.864C389.547,316.106,376.67,340.237,353.878,348.532z"/>
<path d="M362.215,359.983c-8.072,0-16.111-1.766-23.645-5.282c-13.542-6.315-23.825-17.527-28.953-31.556
	c-0.785-2.091-1.408-4.224-1.877-6.408c-6.579-27.494,8.61-55.713,35.37-65.45c29.03-10.547,61.217,4.471,71.756,33.493
	c0.683,1.869,1.263,3.763,1.758,5.7c6.869,27.895-8.286,56.285-35.225,66.09C375.152,358.84,368.675,359.975,362.215,359.983z
	 M362.207,264.983c-4.412,0-8.883,0.751-13.261,2.338c-18.602,6.767-29.158,26.385-24.559,45.636
	c0.341,1.562,0.725,2.901,1.229,4.215c0.009,0.026,0.017,0.051,0.026,0.085c7.356,20.181,29.764,30.609,49.936,23.279
	c18.73-6.827,29.269-26.564,24.499-45.926c-0.333-1.314-0.751-2.671-1.237-3.994C393.088,274.822,378.121,264.983,362.207,264.983z"
	/>
<path d="M362.232,325.432c-0.017,0-0.034,0-0.06,0c-8.968-0.043-17.049-5.734-20.113-14.157c-0.154-0.41-0.265-0.819-0.35-1.246
	l-0.145-0.478c-2.884-12.339,4.352-23.919,15.897-26.572c1.596-0.367,3.2-0.546,4.796-0.546c11.895,0.06,21.495,9.745,21.435,21.597
	C383.634,315.807,374.008,325.407,362.232,325.432z M362.215,299.5c-0.265,0-0.58,0.043-0.913,0.119
	c-2.381,0.546-3.874,2.944-3.328,5.325l0.068,0.094c0.119,0.333,0.205,0.683,0.273,1.024c0.41,1.118,2.065,2.287,3.908,2.312
	c2.415-0.026,4.395-1.997,4.403-4.42C366.627,301.514,364.656,299.509,362.215,299.5z"/>
<path style="fill:#C52828;" d="M408.32,292.554c-0.427-1.621-0.939-3.243-1.451-4.779c-2.423-6.681-6.297-12.749-11.349-17.749
	c-18.73-18.338-48.784-18.022-67.122,0.717c-8.243,8.422-13.056,19.601-13.517,31.368c-0.239,4.301,0.171,8.618,1.195,12.8
	l-15.018,3.243l-48.213,10.41l-10.24,2.219l53.418-69.887l31.146-40.703l-109.822,40.021l-72.959,26.538l-19.2,36.351h-0.085
	L110,351.774c-16.776-5.41-30.131-18.253-36.181-34.815c-0.614-1.673-1.126-3.388-1.536-5.12c-0.427-1.792-0.768-3.499-1.109-5.205
	c-0.853-5.222-0.939-10.538-0.256-15.786c0.486-4.309,1.459-8.542,2.901-12.629c4.548-12.518,13.329-23.057,24.832-29.781
	l19.456-10.24l3.413-1.792l54.356-28.672c6.246,4.966,13.448,8.593,21.162,10.666c0.674,0.239,1.357,0.435,2.048,0.597v0.085
	c10.001,2.62,20.522,2.5,30.464-0.341c1.587-0.393,3.157-0.879,4.693-1.451c7.339-2.696,14.088-6.784,19.882-12.032
	c6.306-5.692,11.315-12.68,14.677-20.48c1.015-2.21,1.869-4.488,2.56-6.827c1.271-4.079,2.074-8.286,2.389-12.544
	c0.375-6.033,3.874-11.434,9.216-14.25l0.597-0.341l30.805-16.213l17.578-9.216c16.375-9.685,37.503-4.258,47.189,12.126
	c1.092,1.843,2.005,3.78,2.731,5.794l39.594,108.884C426.905,267.065,421.478,283.739,408.32,292.554z"/>
<path style="fill:#F44335;" d="M395.52,270.026c-18.73-18.338-48.784-18.022-67.122,0.717c-8.243,8.422-13.056,19.601-13.517,31.368
	c-5.811,4.181-10.547,9.677-13.824,16.042l-48.213,10.41l55.124-72.02l-11.947,4.352l-170.834,62.207h-0.085L110,351.774
	c-16.776-5.41-30.131-18.253-36.181-34.815c-0.614-1.673-1.126-3.388-1.536-5.12c-0.427-1.792-0.768-3.499-1.109-5.205
	c-0.853-5.222-0.939-10.538-0.256-15.786c2.603-2.304,5.427-4.335,8.448-6.059l19.541-10.24l3.328-1.877l54.356-28.586
	c6.246,4.966,13.448,8.593,21.162,10.666c0.7,0.239,1.408,0.435,2.133,0.597v0.085c10.009,2.534,20.514,2.415,30.463-0.341
	c1.562-0.41,3.098-0.887,4.608-1.451c17.937-6.443,31.726-21.06,37.119-39.338c0.973-2.944,1.664-5.973,2.048-9.045
	c0.171-1.109,0.341-2.304,0.427-3.499c0.341-6.016,3.806-11.426,9.131-14.25l0.597-0.341l4.523-2.389l26.282-13.824l17.664-9.301
	c16.426-9.625,37.537-4.113,47.163,12.313c1.058,1.809,1.954,3.72,2.671,5.692L395.52,270.026z"/>
<path d="M110.017,360.325c-0.87,0-1.758-0.137-2.62-0.41c-19.404-6.263-34.559-20.829-41.565-39.987
	c-0.734-1.997-1.348-4.062-1.843-6.152c-0.452-1.911-0.819-3.644-1.186-5.47c-0.026-0.111-0.043-0.222-0.06-0.341
	c-1.724-10.922-0.666-22.203,3.072-32.614c5.171-14.387,15.3-26.555,28.501-34.269l77.592-40.925
	c3.012-1.579,6.673-1.237,9.318,0.887c5.333,4.275,11.4,7.347,18.022,9.122c1.015,0.333,1.374,0.435,1.749,0.521
	c0.444,0.102,0.879,0.239,1.288,0.401c8.243,1.92,16.87,1.741,25.002-0.555c1.459-0.375,2.739-0.785,3.994-1.246
	c15.385-5.564,27.281-18.184,31.897-33.783c1.135-3.575,1.826-7.134,2.091-10.726c0.563-8.943,5.675-16.879,13.645-21.137
	l49.091-25.847c1.877-1.118,4.267-2.244,6.75-3.149c10.812-3.925,22.493-3.405,32.895,1.459
	c10.419,4.864,18.312,13.491,22.229,24.294l39.62,108.849c6.792,18.602,0.068,39.329-16.367,50.397
	c-2.295,1.553-5.197,1.869-7.774,0.905c-2.586-0.964-4.531-3.132-5.239-5.811c-0.393-1.468-0.853-2.927-1.314-4.326
	c-6.681-18.346-26.299-28.928-45.533-24.354c-20.889,4.966-33.851,26.001-28.893,46.89c0.538,2.236,0.145,4.582-1.084,6.528
	c-1.22,1.946-3.174,3.311-5.419,3.789l-73.454,15.88c-3.533,0.742-7.1-0.751-9.011-3.763c-1.92-3.021-1.749-6.92,0.427-9.762
	l66.858-87.388l-152.309,55.44l-32.819,62.096C116.05,358.635,113.106,360.325,110.017,360.325z M79.57,305.14
	c0.316,1.57,0.631,3.055,1.024,4.71c0.341,1.425,0.759,2.833,1.263,4.207c4.369,11.938,13.005,21.478,24.2,26.956l30.771-58.213
	c0.99-1.877,2.637-3.311,4.625-4.036l182.849-66.559c3.533-1.297,7.552-0.094,9.788,2.97c2.253,3.055,2.21,7.228-0.102,10.231
	l-70.501,92.158l42.913-9.284c-0.93-11.759,1.869-23.475,8.175-33.706c7.842-12.74,20.181-21.666,34.73-25.122
	c24.925-5.905,50.252,5.803,62.147,27.699c3.831-6.519,4.736-14.575,1.997-22.058L373.82,146.235
	c-2.364-6.528-7.134-11.733-13.414-14.66c-6.28-2.935-13.337-3.234-19.84-0.879c-1.502,0.538-2.944,1.22-4.284,2.014l-48.793,25.668
	c-3.277,1.775-5.018,4.488-5.214,7.586c-0.375,5.009-1.314,9.873-2.799,14.558c-6.101,20.625-21.956,37.435-42.35,44.808
	c-1.741,0.649-3.567,1.22-5.427,1.707c-11.213,3.149-23.27,3.277-34.722,0.35c-0.401-0.102-0.794-0.23-1.169-0.393
	c-0.555-0.162-1.101-0.333-1.647-0.529c-6.545-1.732-13.03-4.685-19.02-8.712l-72.549,38.254
	c-9.421,5.521-16.896,14.506-20.719,25.13C79.127,288.791,78.324,297.094,79.57,305.14z"/>
<path d="M71.882,314.894c-2.415,0-4.779-1.024-6.443-2.935L5.647,243.258c-1.843-2.116-3.268-4.531-4.25-7.193
	c-4.352-11.912,1.801-25.139,13.704-29.499c4.599-1.621,9.352-1.809,13.884-0.606l91.493,24.482
	c3.388,0.905,5.879,3.797,6.272,7.287s-1.391,6.861-4.488,8.499l-19.268,10.189c-9.318,5.444-16.708,14.319-20.48,24.806
	c-2.714,7.586-3.482,15.821-2.21,23.791c0.597,3.755-1.365,7.458-4.813,9.071C74.339,314.638,73.102,314.894,71.882,314.894z
	 M23.021,222.249c-0.7,0-1.391,0.119-2.065,0.358c-3.063,1.118-4.651,4.531-3.533,7.603c0.247,0.683,0.614,1.297,1.084,1.835
	c0,0,0,0,0,0.009l45.465,52.24c0.614-2.995,1.434-5.939,2.475-8.823c5.146-14.268,15.172-26.316,28.262-33.954l0.367-0.196
	l-70.484-18.858C24.079,222.317,23.55,222.249,23.021,222.249z"/>
<path style="fill:#1566C0;" d="M327.169,220.193l-84.564,110.59l-58.623,76.628c-18.107,20.027-43.741,31.598-70.74,31.914
	c-1.877,0-3.669,0-5.376-0.171c-16.81-1.195-27.306-8.533-29.098-18.773c-0.691-5.316,0.393-10.718,3.072-15.36L110,351.774
	l34.389-65.023l138.664-50.516L327.169,220.193z"/>
<path style="fill:#2296F3;" d="M283.053,236.235l-59.22,77.481l-58.623,76.628c-18.125,20.044-43.801,31.615-70.825,31.914
	c-1.792,0-3.584,0-5.291-0.171c-3.49-0.222-6.946-0.794-10.325-1.707c-0.691-5.316,0.393-10.718,3.072-15.36L110,351.774
	l34.389-65.023L283.053,236.235z"/>
<path d="M113.2,447.858c-2.116,0-4.13-0.017-6.059-0.196c-16.213-1.229-28.245-7.509-33.868-17.689
	c-4.693-8.491-4.318-18.747,1.058-28.902l62.497-118.262c0.99-1.877,2.637-3.311,4.625-4.036l182.849-66.559
	c3.533-1.297,7.552-0.094,9.788,2.97c2.253,3.055,2.21,7.228-0.102,10.231l-143.213,187.15
	c-20.079,22.297-48.153,34.969-77.464,35.293C113.268,447.858,113.234,447.858,113.2,447.858z M150.379,293.68L89.418,409.049
	c-1.835,3.464-3.533,8.473-1.22,12.672c2.679,4.838,10.265,8.183,20.283,8.934c0.06,0,0.128,0.009,0.179,0.017
	c1.468,0.145,3.012,0.137,4.54,0.128c24.473-0.273,47.999-10.888,64.451-29.124l125.028-163.428L150.379,293.68z"/>
<path style="fill:#FDD834;" d="M240.216,141.773c0.009,6.673-1.954,13.201-5.632,18.773c-1.519,2.5-3.422,4.744-5.632,6.656
	c-3.328,3.021-7.211,5.367-11.434,6.912v0.085c-3.814,1.34-7.816,2.031-11.861,2.048c-2.884,0.017-5.751-0.35-8.533-1.109h-0.085
	c-18.449-4.787-29.533-23.62-24.746-42.077s23.62-29.533,42.077-24.746C229.609,112.273,240.242,126.029,240.216,141.773z"/>
<path style="fill:#FFEB3A;" d="M221.87,157.303c0.043,5.888-1.459,11.682-4.352,16.81v0.085c-3.814,1.34-7.816,2.031-11.861,2.048
	c-2.884,0.017-5.751-0.35-8.533-1.109h-0.085c-18.449-4.719-29.585-23.5-24.866-41.949c0.734-2.876,1.835-5.64,3.277-8.226
	c3.797-1.408,7.808-2.133,11.861-2.133c19.055-0.026,34.534,15.394,34.559,34.448C221.87,157.294,221.87,157.294,221.87,157.303z"/>
<path style="fill:#FDD834;" d="M197.03,175.171v43.246c0.683,0.239,1.374,0.444,2.074,0.606v0.085
	c10.009,2.56,20.522,2.44,30.472-0.341c1.579-0.41,3.132-0.896,4.659-1.468c17.928-6.477,31.709-21.086,37.119-39.364l-5.265-1.638
	l-31.513-15.71c-1.562,2.466-3.447,4.702-5.615,6.647c-6.357,5.837-14.677,9.071-23.304,9.062c-2.884,0.017-5.76-0.358-8.55-1.126
	L197.03,175.171z"/>
<path d="M205.375,184.822c-3.336,0-6.699-0.427-9.967-1.28c-0.179-0.034-0.35-0.068-0.512-0.111
	c-18.986-4.915-32.273-22.041-32.298-41.659c0-0.009,0-0.017,0-0.026c0.034-23.671,19.328-42.965,42.999-42.999
	c0.017,0,0.043,0,0.068,0c23.714,0,43.024,19.276,43.058,42.999c0.026,8.38-2.398,16.52-7.023,23.526
	c-1.869,2.97-4.267,5.803-7.023,8.286c-7.902,7.245-18.21,11.255-28.987,11.255C205.597,184.814,205.486,184.822,205.375,184.822z
	 M198.762,166.8c0.213,0.043,0.427,0.085,0.631,0.145c2.022,0.555,4.36,0.93,6.221,0.811c0.009,0,0.017,0,0.026,0
	c6.571,0,12.783-2.423,17.578-6.818c1.647-1.485,3.029-3.123,4.156-4.907c2.859-4.335,4.309-9.216,4.292-14.242
	c-0.009-6.955-2.722-13.482-7.646-18.381c-4.907-4.898-11.426-7.586-18.355-7.586c-0.009,0-0.026,0-0.043,0
	c-14.285,0.017-25.932,11.665-25.958,25.949C179.69,153.463,187.515,163.694,198.762,166.8z"/>
<path d="M213.738,229.477c-5.615,0-11.247-0.7-16.742-2.108c-0.41-0.102-0.802-0.239-1.186-0.393
	c-0.546-0.162-1.092-0.333-1.638-0.529c-3.396-1.212-5.675-4.429-5.675-8.038v-43.246c0-4.71,3.823-8.533,8.533-8.533h0.085
	c0.768,0,1.527,0.102,2.27,0.307c2.022,0.555,4.36,0.93,6.221,0.811h0.009c6.571,0,12.8-2.423,17.595-6.818
	c1.647-1.485,3.029-3.123,4.164-4.915c2.338-3.703,7.091-5.043,11.025-3.08l30.89,15.402l4.616,1.434
	c4.446,1.391,6.963,6.093,5.64,10.564c-6.152,20.787-22.007,37.597-42.401,44.97c-1.732,0.64-3.567,1.22-5.419,1.698
	C225.889,228.657,219.822,229.477,213.738,229.477z M205.563,211.753c7.219,1.169,14.634,0.768,21.708-1.203
	c1.451-0.375,2.739-0.785,3.994-1.246c12.851-4.642,23.279-14.225,29.047-26.35l-23.33-11.631c-0.734,0.777-1.502,1.527-2.304,2.244
	c-7.902,7.245-18.218,11.255-29.004,11.255c-0.051,0-0.077,0-0.119,0v26.931H205.563z"/>
<g>
</g>
<g>
</g>
<g>
</g>
<g>
</g>
<g>
</g>
<g>
</g>
<g>
</g>
<g>
</g>
<g>
</g>
<g>
</g>
<g>
</g>
<g>
</g>
<g>
</g>
<g>
</g>
<g>
</g>
</svg>
