<svg height="496pt" viewBox="0 0 496 496" width="496pt" xmlns="http://www.w3.org/2000/svg"><g fill="#f0bc5e"><path d="m224 464 8.886719-40h-24.886719l-3.761719-18.800781c-.878906-4.390625-1.628906-8.808594-2.46875-13.199219h-1.769531l-64 25.601562v54.398438h89.472656c-.898437-2.511719-1.472656-5.175781-1.472656-8zm0 0"/><path d="m296 392h-1.769531c-.839844 4.398438-1.589844 8.808594-2.46875 13.199219l-3.761719 18.800781h-24.886719l8.886719 40c0 2.824219-.574219 5.488281-1.472656 8h89.472656v-54.398438zm0 0"/><path d="m128 264-80-24v-40h80zm0 0"/><path d="m448 240-80 24v-64h80zm0 0"/><path d="m139.503906 8.542969c-1.816406-.367188-3.664062-.542969-5.480468-.542969h-2.023438c-15.441406 0-28 12.558594-28 28s12.558594 28 28 28h3c.945312 0 1.886719-.046875 2.792969-.144531l79.007812-7.894531.773438-31.808594zm0 0"/><path d="m364 8h-2.023438c-1.824218 0-3.664062.175781-5.496093.542969l-78.046875 15.617187.765625 31.800782 78.960937 7.886718c.953125.105469 1.894532.152344 2.839844.152344h3c15.441406 0 28-12.558594 28-28s-12.558594-28-28-28zm0 0"/></g><path d="m248 168c-17.648438 0-32 14.351562-32 32v32c0 17.648438 14.351562 32 32 32s32-14.351562 32-32v-32c0-17.648438-14.351562-32-32-32zm0 16c8.824219 0 16 7.175781 16 16v8h-32v-8c0-8.824219 7.175781-16 16-16zm0 64c-8.824219 0-16-7.175781-16-16v-8h32v8c0 8.824219-7.175781 16-16 16zm0 0"/><path d="m496 229.847656v-69.847656h-40v-24c0-13.230469-10.769531-24-24-24s-24 10.769531-24 24v24h-16v-8c0-13.230469-10.769531-24-24-24s-24 10.769531-24 24v8h-16.59375c.371094-13.335938.59375-26.671875.59375-40v-2.894531l-40-48.007813v-29.097656c0-22.054688-17.945312-40-40-40s-40 17.945312-40 40v29.105469l-40 48.007812v2.886719c0 13.328125.222656 26.664062.59375 40h-16.59375v-8c0-13.230469-10.769531-24-24-24s-24 10.769531-24 24v8h-16v-24c0-13.230469-10.769531-24-24-24s-24 10.769531-24 24v24h-40v69.847656l177.617188 56.511719c3.832031 33.511719 8.832031 66.871094 14.957031 99.984375l-120.574219 48.242188v45.414062h148.449219c5.550781 9.519531 15.757812 16 27.550781 16s22-6.480469 27.550781-16h148.449219v-45.414062l-120.574219-48.234376c6.125-33.121093 11.125-66.480468 14.957031-99.984374zm-175.679688 39.105469c2.078126-20.28125 3.679688-40.609375 4.910157-60.953125h154.769531v10.152344zm-57.90625 115.046875h-28.828124l-7.113282 32h-11.914062l-2.480469-12.367188c-18.101563-90.578124-27.484375-183.257812-28.007813-275.632812h87.929688v-16h-78.921875l26.675781-32h56.492188l26.675781 32h-14.921875v16h23.929688c-.523438 92.375-9.90625 185.054688-28.019532 275.632812l-2.46875 12.367188h-11.992187zm161.585938-248c0-4.40625 3.585938-8 8-8s8 3.59375 8 8v24h-16zm-64 16c0-4.40625 3.585938-8 8-8s8 3.59375 8 8v8h-16zm120 24v16h-153.785156c.265625-5.335938.394531-10.664062.59375-16zm-232-160c13.230469 0 24 10.769531 24 24v24h-48v-24c0-13.230469 10.769531-24 24-24zm-128 136c0-4.40625 3.585938-8 8-8s8 3.59375 8 8v8h-16zm-64-16c0-4.40625 3.585938-8 8-8s8 3.59375 8 8v24h-16zm113.191406 40c.207032 5.335938.328125 10.664062.59375 16h-153.785156v-16zm-153.191406 42.152344v-10.152344h154.777344c1.230468 20.34375 2.824218 40.671875 4.902344 60.953125zm120 245.847656v-16h-16v16h-32v-18.585938l107.574219-43.023437c.289062 1.457031.53125 2.929687.824219 4.386719l5.042968 25.222656h21.480469l-6.730469 30.265625-.191406 1.734375zm112 16c-8.550781 0-15.566406-6.753906-15.984375-15.207031l14.398437-64.792969h3.171876l14.398437 64.792969c-.417969 8.453125-7.433594 15.207031-15.984375 15.207031zm160-34.585938v18.585938h-32v-16h-16v16h-80l-7.03125-32h21.597656l5.042969-25.222656c.285156-1.457032.535156-2.929688.824219-4.386719zm0 0"/></svg>