<svg height="512pt" viewBox="0 -68 512 512" width="512pt" xmlns="http://www.w3.org/2000/svg"><path d="m492.691406 197.964844-16.691406-11.714844-10-15 10-15 16.691406-11.714844c4.96875-3.488281 11.808594.066406 11.808594 6.140625v41.148438c0 6.070312-6.839844 9.625-11.808594 6.140625zm0 0" fill="#46525e"/><path d="m492.691406 254.140625-16.691406-11.714844-10-15 10-15 16.691406-11.714843c4.96875-3.488282 11.808594.066406 11.808594 6.140624v41.148438c0 6.070312-6.839844 9.628906-11.808594 6.140625zm0 0" fill="#46525e"/><path d="m448.5 7.5h-13.765625c-11.871094 0-23.128906 5.273438-30.726563 14.390625l-88.007812 105.609375 70 50 70-50v-112.5c0-4.144531-3.359375-7.5-7.5-7.5zm0 0" fill="#fff9eb"/><path d="m404 67.5v30h-63l-25 30 42 30h56l42-30v-60zm0 0" fill="#d3cdbf"/><path d="m448.5 7.5h-13.765625c-2.964844 0-5.890625.328125-8.734375.964844v140.460937l30-21.425781v-112.5c0-4.144531-3.359375-7.5-7.5-7.5zm0 0" fill="#46525e"/><path d="m145.820312 127.5c-23.164062 0-45.203124 9.957031-60.457031 27.316406l-22.566406 25.683594-34.570313 16.878906c-12.679687 6.191406-20.726562 19.070313-20.726562 33.1875 0 20.398438 16.535156 36.933594 36.933594 36.933594h416.566406c8.285156 0 15-6.71875 15-15v-110c0-8.285156-6.714844-15-15-15zm0 0" fill="#fff9eb"/><path d="m461 127.5h-15v110h-437.839844c3.246094 17.082031 18.246094 30 36.273438 30h416.566406c8.285156 0 15-6.71875 15-15v-110c0-8.285156-6.714844-15-15-15zm0 0" fill="#d3cdbf"/><path d="m116.800781 154.816406h-31.4375l-22.566406 25.683594h54.003906c7.09375 0 12.839844-5.75 12.839844-12.84375.003906-7.089844-5.746094-12.839844-12.839844-12.839844zm0 0" fill="#3e4954"/><path d="m127.5 212.5v15c0 11.785156 7.945312 22.089844 19.339844 25.089844l113.183594 24.917968c49.914062 13.132813 95.917968 38.121094 134.109374 72.839844 12.140626 11.035156 27.960938 17.152344 44.367188 17.152344 4.140625 0 7.5-3.359375 7.5-7.5 0-6.597656 0-141.453125 0-147.5zm0 0" fill="#d3cdbf"/><path d="m146.839844 252.589844 113.183594 24.917968c49.914062 13.132813 95.917968 38.121094 134.109374 72.839844 12.140626 11.035156 27.960938 17.152344 44.367188 17.152344 4.140625 0 7.5-3.359375 7.5-7.5 0-6.597656 0-141.453125 0-147.5h-30v117.089844c-.574219-.460938-1.140625-.941406-1.6875-1.441406-41.589844-37.808594-92.300781-65.351563-146.652344-79.65625l-110.160156-24.121094v-11.871094h-30v15c0 11.785156 7.945312 22.089844 19.339844 25.089844zm0 0" fill="#46525e"/><path d="m475.988281 185.511719c-.390625-14.296875-12.480469-25.511719-26.785156-25.511719h-96.703125c-8.285156 0-15 6.714844-15 15v22.5c0 8.28125 6.714844 15 15 15h97.25c14.742188 0 26.644531-12.152344 26.238281-26.988281zm0 0" fill="#fff9eb"/><path d="m449.203125 160h-3.925781c.339844 12.324219-9.558594 22.5-21.890625 22.5h-85.890625v15c0 8.28125 6.71875 15 15 15h97.253906c14.742188 0 26.644531-12.15625 26.238281-26.988281-.390625-14.296875-12.480469-25.511719-26.785156-25.511719zm0 0" fill="#d3cdbf"/><path d="m512 150.675781c0-5.617187-3.097656-10.71875-8.078125-13.3125-4.984375-2.589843-10.9375-2.195312-15.539063 1.03125l-4.898437 3.441407c-.332031-11.261719-8.96875-20.472657-19.984375-21.695313v-105.140625c0-.503906-.023438-1.015625-.078125-1.523438-.714844-7.050781-6.351563-12.683593-13.402344-13.398437-.507812-.0546875-1.015625-.078125-1.519531-.078125h-13.765625c-3.484375 0-6.976563.386719-10.371094 1.144531-.023437.007813-.046875.015625-.070312.019531-10.171875 2.292969-19.34375 7.882813-26.050781 15.929688l-85.753907 102.90625h-166.667969c-25.320312 0-49.410156 10.886719-66.089843 29.867188l-21.578125 24.550781-33.214844 16.222656c-15.148438 7.394531-24.9375 23.066406-24.9375 39.925781 0 24.5 19.933594 44.433594 44.433594 44.433594h176.597656l37.085938 9.757812c48.539062 12.773438 93.828124 37.371094 130.96875 71.136719 13.550781 12.320313 31.101562 19.105469 49.414062 19.105469 8.269531 0 15-6.730469 15-15v-85h7.5c11.011719 0 20.191406-7.953125 22.121094-18.414062l5.261718 3.691406c2.582032 1.8125 5.589844 2.730468 8.609376 2.730468 2.363281 0 4.738281-.5625 6.925781-1.699218 4.984375-2.589844 8.082031-7.691406 8.082031-13.308594v-41.148438c0-2.699218-.722656-5.273437-2.015625-7.515624 1.292969-2.238282 2.015625-4.8125 2.015625-7.511719zm-15 0v41.148438l-13.5-9.472657v-22.203124zm-48.5-75.675781v15h-37v-15zm-15 30h15v15h-15zm15-45h-15v-44.976562c.410156-.015626.824219-.023438 1.234375-.023438h13.765625zm-359.742188 102.316406h28.042969c2.945313 0 5.339844 2.398438 5.339844 5.339844 0 2.945312-2.394531 5.34375-5.339844 5.34375h-37.429687zm349.742188 197.683594c-14.574219 0-28.539062-5.398438-39.324219-15.203125-38.917969-35.382813-86.378906-61.160156-137.242187-74.542969l-38.023438-10.007812c-.089844-.023438-.183594-.042969-.273437-.0625-.054688-.011719-.109375-.027344-.167969-.039063 0 0-.003906 0-.007812-.003906l-74.910157-14.859375c-7.992187-2.199219-13.550781-9.480469-13.550781-17.78125v-15c0-4.144531-3.355469-7.5-7.5-7.5s-7.5 3.355469-7.5 7.5v15c0 15.179688 10.253906 28.476562 24.933594 32.34375.148437.039062.296875.070312.449218.101562l.269532.054688h-101.21875c-16.230469 0-29.433594-13.203125-29.433594-29.433594 0-11.167968 6.484375-21.550781 16.519531-26.449218l33.007813-16.117188h52.273437c11.21875 0 20.34375-9.125 20.34375-20.34375 0-11.214844-9.125-20.339844-20.34375-20.339844h-11.597656c11.894531-7.953125 26.011719-12.316406 40.617187-12.316406h217.851563c4.144531 0 7.5-3.359375 7.5-7.5 0-4.144531-3.355469-7.5-7.5-7.5h-31.660156l77.753906-93.308594c2.472656-2.964844 5.4375-5.445312 8.734375-7.34375v40.652344h-14.5c-4.144531 0-7.5 3.355469-7.5 7.5v30c0 4.140625 3.355469 7.5 7.5 7.5h14.5v22.5c0 4.140625 3.355469 7.5 7.5 7.5h35c4.136719 0 7.5 3.363281 7.5 7.5v15.882812c-5.664062-3.816406-12.339844-5.882812-19.300781-5.882812-4.128907 0-7.5 3.359375-7.5 7.5s3.371093 7.5 7.5 7.5h.019531c10.382812 0 19.011719 8.140625 19.269531 18.148438v.011718c.011719.226563.011719.417969.011719.589844-.019531 10.316406-8.429688 18.726562-18.75 18.75h-97.25c-4.128906-.011719-7.488281-3.371094-7.5-7.5v-22.5c.011719-4.132812 3.371094-7.492188 7.5-7.5h66.699219c4.140625 0 7.5-3.371094 7.5-7.5 0-4.140625-3.359375-7.5-7.5-7.5h-66.699219c-6.011719 0-11.660156 2.339844-15.910156 6.589844s-6.589844 9.898437-6.589844 15.910156v22.5c0 6.007812 2.339844 11.660156 6.589844 15.910156s9.898437 6.589844 15.910156 6.589844h86zm22.5-100h-7.5v-40.214844c5.402344-.589844 10.519531-2.457031 15-5.464844v38.179688c0 4.136719-3.363281 7.5-7.5 7.5zm36-12-13.5-9.472656v-22.203125l13.5-9.472657zm0 0"/><path d="m416 235c-4.140625 0-7.5 3.359375-7.5 7.5v70.628906c-20.070312-16.8125-42.089844-31.460937-65.460938-43.5625-23.429687-12.128906-48.148437-21.667968-73.46875-28.328125l-96.992187-21.238281h137.414063c4.144531 0 7.5-3.359375 7.5-7.5 0-4.144531-3.355469-7.5-7.5-7.5h-152.492188c-4.144531 0-7.5 3.355469-7.5 7.5v11.867188c0 3.5625 2.421875 6.570312 5.898438 7.332031l109.980468 24.078125c53.140625 14 102.71875 40.949218 143.390625 77.921875 1.804688 1.648437 5.203125 4.921875 9.980469 2.648437 2.617188-1.257812 4.25-3.851562 4.25-6.757812v-87.089844c0-4.140625-3.359375-7.5-7.5-7.5zm0 0"/></svg>