<?xml version="1.0" encoding="iso-8859-1"?>
<!-- Generator: Adobe Illustrator 19.0.0, SVG Export Plug-In . SVG Version: 6.00 Build 0)  -->
<svg version="1.1" id="Capa_1" xmlns="http://www.w3.org/2000/svg" xmlns:xlink="http://www.w3.org/1999/xlink" x="0px" y="0px"
	 viewBox="0 0 511.997 511.997" style="enable-background:new 0 0 511.997 511.997;" xml:space="preserve">
<g>
	<g transform="translate(1)">
		<path style="fill:#1566C0;" d="M382.147,480.252l-18.176,18.176c-3.202,3.236-7.565,5.056-12.117,5.056
			c-4.552,0-8.915-1.821-12.117-5.056l-60.587-60.587l-12.117-12.117l-36.352-36.352L12.568,171.26
			c-2.418-2.387-4.055-5.452-4.693-8.789l318.891,318.891c3.202,3.236,7.565,5.056,12.117,5.056c4.552,0,8.915-1.821,12.117-5.056
			l16.128-16.128L382.147,480.252z"/>
		<path style="fill:#CFD8DC;" d="M405.613,456.785l-23.467,23.467l-15.019-15.019l25.515-25.515
			c7.504-7.558,9.574-18.959,5.205-28.672c-3.898-13.963-6.919-28.156-9.045-42.496c5.99,20.327,13.345,40.227,22.016,59.563
			C415.188,437.826,413.118,449.228,405.613,456.785L405.613,456.785z"/>
		<path style="fill:#2296F3;" d="M367.128,465.233L351,481.361c-3.202,3.236-7.565,5.056-12.117,5.056
			c-4.552,0-8.915-1.821-12.117-5.056L7.875,162.471c-1.136-5.61,0.628-11.416,4.693-15.445l18.176-18.176L367.128,465.233z"/>
		<path style="fill:#F5F5F5;" d="M392.643,439.719l-25.515,25.515L30.744,128.849l6.059-6.059l17.408-17.408
			c7.558-7.504,18.959-9.574,28.672-5.205c121.771,54.528,208.384,34.731,208.384,34.731l71.168,71.168l13.653,13.653
			c0,0-10.069,44.203,4.011,113.749c2.219,11.093,5.035,22.784,8.704,35.072c2.126,14.34,5.147,28.533,9.045,42.496
			C402.217,420.76,400.147,432.161,392.643,439.719L392.643,439.719z"/>
		<path style="fill:#FDD834;" d="M267.032,353.02l-54.528,54.528c-3.354,3.327-8.763,3.327-12.117,0l-18.944,37.888
			c-1.245,2.455-3.588,4.166-6.305,4.605c-2.717,0.439-5.48-0.448-7.434-2.386l-17.579-17.579l-28.501-28.587l-12.117-12.117
			l-46.165-46.08c-1.938-1.954-2.825-4.717-2.386-7.434c0.439-2.717,2.15-5.06,4.605-6.305l37.888-18.944
			c-3.328-3.354-3.328-8.764,0-12.117l54.528-54.528c9.002-9.062,23.301-10.117,33.536-2.475c0.996,0.758,1.937,1.585,2.816,2.475
			l30.293,30.293l6.059,6.059l6.059,6.059l30.293,30.293c4.835,4.813,7.552,11.354,7.552,18.176
			C274.584,341.666,271.867,348.207,267.032,353.02z"/>
		<path style="fill:#FFEB3A;" d="M247.832,334.246l-54.528,54.528c-3.388,3.242-8.729,3.242-12.117,0l-18.944,37.888
			c-1.07,2.145-2.995,3.739-5.303,4.389c-2.307,0.65-4.782,0.296-6.814-0.976l-28.501-28.587l-12.117-12.117l-46.165-46.08
			c-1.938-1.954-2.825-4.717-2.386-7.434c0.439-2.717,2.15-5.06,4.605-6.305l37.888-18.944c-3.328-3.354-3.328-8.764,0-12.117
			l54.528-54.528c9.002-9.062,23.301-10.117,33.536-2.475l13.909,13.995l6.059,6.059l6.059,6.059l30.293,30.293
			c4.835,4.813,7.552,11.354,7.552,18.176C255.384,322.892,252.667,329.433,247.832,334.246z"/>
		<path style="fill:#607D8B;" d="M495.725,84.902c-3.995,13.569-11.195,25.979-20.992,36.181L273.091,322.727l-16.896-16.896
			l-67.925-67.925L389.912,36.262c9.513-9.204,21.017-16.095,33.621-20.139c0.853-0.341,1.707-0.597,2.56-0.853v0.085l69.547,69.547
			H495.725z"/>
		<path style="fill:#CFD8DC;" d="M477.123,69.628c-3.995,13.569-11.195,25.979-20.992,36.181L256.195,305.831l-67.925-67.925
			L389.912,36.262c9.513-9.204,21.017-16.095,33.621-20.139l53.504,53.504H477.123z"/>
		<g>
			<path style="fill:#607D8B;" d="M495.725,84.902h-0.085l-69.547-69.547V15.27c19.533-5.594,39.888-7.76,60.16-6.4
				c8.594,0.402,15.47,7.278,15.872,15.872C503.485,45.015,501.319,65.37,495.725,84.902L495.725,84.902z"/>
			<path style="fill:#607D8B;" d="M267.032,353.02l-54.528,54.528c-3.354,3.327-8.763,3.327-12.117,0l-17.067-17.067l-42.411-42.411
				l-37.461-37.461c-3.328-3.354-3.328-8.764,0-12.117l54.528-54.528c4.813-4.834,11.354-7.552,18.176-7.552
				c6.822,0,13.363,2.718,18.176,7.552l13.227,13.227l6.059,6.059l6.059,6.059l47.36,47.36c4.835,4.813,7.552,11.354,7.552,18.176
				C274.584,341.666,271.867,348.207,267.032,353.02z"/>
		</g>
		<path style="fill:#CFD8DC;" d="M249.965,335.953l-54.528,54.528c-3.354,3.327-8.763,3.327-12.117,0l-42.411-42.411l-37.461-37.461
			c-3.328-3.354-3.328-8.764,0-12.117l54.528-54.528c4.813-4.834,11.354-7.552,18.176-7.552c6.822,0,13.363,2.718,18.176,7.552
			l13.227,13.227l6.059,6.059l6.059,6.059l30.293,30.293c4.835,4.813,7.552,11.354,7.552,18.176
			C257.518,324.599,254.8,331.14,249.965,335.953z"/>
	</g>
	<g>
		<path d="M37.804,207.583l0.009,0.013l0.013,0.009l36.333,36.333l0.009,0.013l0.012,0.009l36.367,36.367L98.4,292.471
			c-3.846,3.582-5.653,8.846-4.818,14.034l-30.803,15.403c-4.917,2.458-8.353,7.13-9.233,12.556
			c-0.88,5.426,0.903,10.945,4.791,14.831l52.183,52.179l52.179,52.183c3.887,3.889,9.406,5.671,14.833,4.791
			c5.427-0.88,10.1-4.316,12.559-9.233l15.399-30.803c5.189,0.835,10.452-0.972,14.034-4.818l12.146-12.146l36.37,36.371
			l0.005,0.008l0.008,0.005l36.344,36.345l0.002,0.004l0.004,0.002l30.288,30.29c4.814,4.815,11.343,7.521,18.152,7.521
			c6.809,0,13.338-2.705,18.152-7.521l41.642-41.637c9.977-10.082,12.746-25.252,6.975-38.208
			c-47.808-106.696-37.124-186.457-34.646-200.713l58.708-58.708l0.013-0.009l0.009-0.012l36.342-36.342
			c0.154-0.154,0.3-0.308,0.438-0.471c0.45-0.417,0.879-0.842,1.321-1.288c29.292-29.287,31.292-77,29.871-102.904
			c-0.702-12.9-11.023-23.192-23.926-23.858c-25.779-1.4-73.542,0.583-102.813,29.854c-0.458,0.454-0.887,0.887-1.308,1.342
			c-0.158,0.137-0.317,0.283-0.471,0.438L346.808,68.3l-0.012,0.009l-0.009,0.013l-58.718,58.718
			c-14.204,2.51-93.635,13.32-200.703-34.656c-12.956-5.767-28.122-2.998-38.204,6.975L7.521,140.996
			C2.705,145.809,0,152.339,0,159.148c0,6.809,2.705,13.338,7.521,18.152L37.804,207.583z M98.426,207.621l-18.223,18.225
			l-24.286-24.287l18.223-18.223L98.426,207.621z M92.269,237.914l18.223-18.226l30.345,30.345l-18.225,18.225L92.269,237.914z
			 M164.996,250.009c3.22-3.223,7.588-5.033,12.144-5.033s8.924,1.811,12.144,5.033l30.319,30.319l-36.404,36.404l-24.26-24.26
			c-2.156-2.156-5.297-2.997-8.242-2.208c-2.944,0.789-5.244,3.089-6.033,6.033c-0.789,2.944,0.053,6.086,2.208,8.242l24.26,24.26
			l-18.223,18.223l-42.442-42.483L164.996,250.009z M102.75,321.004l38.087,38.087l-24.279,24.279l-46.146-46.2L102.75,321.004z
			 M174.766,441.592l-46.146-46.15l24.283-24.283l38.083,38.083L174.766,441.592z M207.421,401.537l-42.45-42.446l18.227-18.227
			l24.26,24.26c2.156,2.155,5.297,2.997,8.242,2.208c2.944-0.789,5.244-3.089,6.033-6.033c0.789-2.944-0.053-6.086-2.208-8.242
			l-24.26-24.26l36.404-36.404l30.319,30.319c3.223,3.22,5.033,7.588,5.033,12.144s-1.811,8.924-5.033,12.144L207.421,401.537z
			 M261.962,371.158l30.345,30.345l-18.225,18.224l-30.345-30.345L261.962,371.158z M286.148,431.794l18.226-18.224l24.286,24.286
			l-18.225,18.225L286.148,431.794z M358.925,492.408c-3.403,3.25-8.76,3.25-12.162,0l-24.26-24.26l18.225-18.225l30.342,30.342
			L358.925,492.408z M404.037,431.604c2.904,6.492,1.527,14.1-3.467,19.163l-17.434,17.432l-36.366-36.365l-0.009-0.013
			l-0.012-0.009l-72.721-72.721l0.025-0.025c8.754-8.556,12.115-21.222,8.755-32.992l82.734-82.733
			C363.251,278.254,365.815,346.3,404.037,431.604L404.037,431.604z M486.738,17.363c4.259,0.174,7.682,3.568,7.892,7.825
			c0.863,14.403,0.012,28.857-2.533,43.059L443.75,19.901C457.929,17.361,472.359,16.509,486.738,17.363L486.738,17.363z
			 M394.379,44.862c0.543-0.409,1.036-0.882,1.467-1.408c0.356-0.415,0.733-0.811,1.129-1.188
			c7.931-7.664,17.425-13.524,27.831-17.177l62.098,62.098c-3.658,10.415-9.524,19.916-17.196,27.854
			c-0.369,0.39-0.759,0.759-1.167,1.108c-0.511,0.42-0.971,0.898-1.371,1.425l-29.52,29.521l-12.142-12.142
			c-2.156-2.156-5.297-2.997-8.242-2.208s-5.244,3.089-6.033,6.033c-0.789,2.944,0.053,6.086,2.208,8.242l12.142,12.142
			L322.549,262.2l-12.141-12.141c-3.332-3.332-8.735-3.332-12.067,0c-3.332,3.332-3.332,8.735,0,12.067l12.141,12.141
			l-36.403,36.405l-0.025-0.025l-36.35-36.355l-36.355-36.35l-0.025-0.025l36.404-36.404l12.142,12.142
			c2.156,2.156,5.297,2.997,8.242,2.208c2.944-0.789,5.244-3.089,6.033-6.033c0.789-2.944-0.053-6.086-2.208-8.242l-12.141-12.141
			L352.831,86.41l12.144,12.144c2.155,2.155,5.297,2.997,8.242,2.208c2.944-0.789,5.244-3.089,6.033-6.033
			c0.789-2.944-0.053-6.086-2.208-8.242l-12.144-12.144L394.379,44.862z M61.233,111.425c5.063-4.991,12.668-6.367,19.158-3.467
			c85.305,38.219,153.353,40.783,188.265,38.493l-82.735,82.735c-11.771-3.36-24.436,0.001-32.992,8.755l-0.025,0.025
			l-72.721-72.721l-0.009-0.012l-0.013-0.009l-36.365-36.365L61.233,111.425z M19.587,153.067l12.142-12.141l30.343,30.343
			l-18.223,18.224l-24.262-24.263c-1.614-1.612-2.521-3.8-2.521-6.081S17.974,154.679,19.587,153.067L19.587,153.067z"/>
		<path d="M140.788,197.979c2.264,0.003,4.435-0.897,6.033-2.5l18.175-18.179c3.332-3.332,3.332-8.735,0-12.067
			c-3.332-3.332-8.735-3.332-12.067,0l-18.175,18.179c-2.44,2.44-3.169,6.11-1.849,9.298
			C134.226,195.899,137.336,197.978,140.788,197.979L140.788,197.979z"/>
		<path d="M334.696,347l-18.179,18.175c-3.332,3.332-3.332,8.735,0,12.067c3.332,3.332,8.735,3.332,12.067,0l18.179-18.175
			c3.332-3.332,3.332-8.735,0-12.067C343.43,343.668,338.028,343.668,334.696,347L334.696,347z"/>
		<path d="M413.392,74.317c2.496-2.471,10.813-1.346,18.229,6.059c7.408,7.413,8.537,15.75,6.059,18.229
			c-2.156,2.155-2.997,5.297-2.208,8.242c0.789,2.944,3.089,5.244,6.033,6.033c2.944,0.789,6.086-0.053,8.242-2.208
			c10.175-10.175,7.517-28.783-6.059-42.363c-13.575-13.567-32.183-16.233-42.363-6.059c-3.332,3.332-3.332,8.735,0,12.067
			C404.657,77.649,410.06,77.649,413.392,74.317L413.392,74.317z"/>
	</g>
</g>
<g>
</g>
<g>
</g>
<g>
</g>
<g>
</g>
<g>
</g>
<g>
</g>
<g>
</g>
<g>
</g>
<g>
</g>
<g>
</g>
<g>
</g>
<g>
</g>
<g>
</g>
<g>
</g>
<g>
</g>
</svg>
