<?xml version="1.0" encoding="iso-8859-1"?>
<!-- Generator: Adobe Illustrator 19.0.0, SVG Export Plug-In . SVG Version: 6.00 Build 0)  -->
<svg version="1.1" id="Capa_1" xmlns="http://www.w3.org/2000/svg" xmlns:xlink="http://www.w3.org/1999/xlink" x="0px" y="0px"
	 viewBox="0 0 512 512" style="enable-background:new 0 0 512 512;" xml:space="preserve">
<g>
	<g transform="translate(1 1)">
		<g>
			<path style="fill:#CFD8DC;" d="M84.333,203.8h25.6v64H75.8v-55.467C75.8,207.621,79.621,203.8,84.333,203.8z"/>
			<path style="fill:#CFD8DC;" d="M434.2,267.8h-34.133v-64h25.6c4.713,0,8.533,3.82,8.533,8.533V267.8z"/>
		</g>
		<rect x="92.867" y="297.667" style="fill:#607D8B;" width="324.267" height="179.2"/>
		<rect x="109.933" y="297.667" style="fill:#CFD8DC;" width="264.533" height="179.2"/>
		<polyline style="fill:#3B97D3;" points="109.933,343.149 109.933,340.333 109.933,255 75.8,255 7.533,374.467 7.533,459.8 
			67.267,476.867 84.333,476.867 		"/>
		<polygon style="fill:#0377BC;" points="502.467,374.467 502.467,459.8 442.733,476.867 425.667,476.867 425.24,474.563 
			400.067,343.149 400.067,255 434.2,255 		"/>
		<polygon style="fill:#02A9F4;" points="476.867,374.467 476.867,459.8 425.24,474.563 400.067,343.149 400.067,255 408.6,255 		
			"/>
		<path style="fill:#607D8B;" d="M365.933,237.933v102.4l-1.365,1.195l-0.085,0.085l-32.256,27.648l-0.427,0.341l-16.043,13.739
			c-6.174,5.303-14.048,8.21-22.187,8.192h-77.141c-8.139,0.018-16.013-2.889-22.187-8.192L178.2,369.603l-0.427-0.341
			l-32.256-27.648l-0.085-0.085l-1.365-1.195v-102.4l76.8-230.4h68.267L365.933,237.933z"/>
		<path style="fill:#CFD8DC;" d="M340.333,237.933v102.4l-1.365,1.195l-0.085,0.085l-32.256,27.648l-0.427,0.341l-16.043,13.739
			c-6.174,5.303-14.048,8.21-22.187,8.192h-51.541c-8.139,0.018-16.013-2.889-22.187-8.192L178.2,369.603l-0.427-0.341
			l-32.256-27.648l-0.085-0.085l-1.365-1.195v-102.4l76.8-230.4h42.667L340.333,237.933z"/>
		<polygon style="fill:#02A9F4;" points="229.4,255 186.733,323.267 186.733,237.933 212.333,161.133 		"/>
		<path style="fill:#607D8B;" d="M178.2,365.933v110.933c0,14.165-20.992,25.6-46.933,25.6c-4.288,0.012-8.569-0.331-12.8-1.024
			c-19.712-2.987-34.133-12.8-34.133-24.576V365.933H178.2z"/>
		<polygon style="fill:#02A9F4;" points="323.267,237.933 323.267,323.267 280.6,255 297.667,161.133 		"/>
		<polygon style="fill:#1566C0;" points="323.267,323.267 297.667,348.867 212.333,348.867 186.733,323.267 229.4,255 280.6,255 		
			"/>
		<polygon style="fill:#00BCD4;" points="297.667,161.133 280.6,255 229.4,255 212.333,161.133 		"/>
		<path style="fill:#607D8B;" d="M425.667,365.933v110.933c0,14.165-20.992,25.6-46.933,25.6c-4.288,0.012-8.569-0.331-12.8-1.024
			c-19.712-2.987-34.133-12.8-34.133-24.576V365.933H425.667z"/>
		<g>
			<path style="fill:#CFD8DC;" d="M152.6,365.933v110.933c0,11.776-14.421,21.589-34.133,24.576
				c-19.712-2.987-34.133-12.8-34.133-24.576V365.933H152.6z"/>
			<path style="fill:#CFD8DC;" d="M400.067,365.933v110.933c0,11.776-14.421,21.589-34.133,24.576
				c-19.712-2.987-34.133-12.8-34.133-24.576V365.933H400.067z"/>
		</g>
		<path style="fill:#02A9F4;" d="M278.724,502.467h-47.449c-2.557,0-4.978-1.146-6.599-3.123s-2.27-4.577-1.768-7.084l13.653-68.267
			c0.798-3.989,4.3-6.86,8.368-6.86h20.142c4.068,0,7.57,2.871,8.368,6.86l13.653,68.267c0.501,2.507-0.148,5.107-1.768,7.084
			C283.703,501.32,281.281,502.467,278.724,502.467L278.724,502.467z"/>
		<path style="fill:#9E9E9E;" d="M314.733,84.333c-5.372,6.951-12.26,12.583-20.139,16.469c-12.24,6.272-25.844,9.409-39.595,9.131
			c-42.667,0-59.733-25.6-59.733-25.6l25.6-76.8h68.267L314.733,84.333z"/>
		<g>
			<ellipse style="fill:#424242;" cx="131.267" cy="365.933" rx="46.933" ry="25.6"/>
			<ellipse style="fill:#424242;" cx="378.733" cy="365.933" rx="46.933" ry="25.6"/>
		</g>
		<g>
			<ellipse style="fill:#9E9E9E;" cx="118.467" cy="365.933" rx="34.133" ry="25.6"/>
			<ellipse style="fill:#9E9E9E;" cx="365.933" cy="365.933" rx="34.133" ry="25.6"/>
		</g>
		<path style="fill:#424242;" d="M314.733,84.333c-5.372,6.951-12.26,12.583-20.139,16.469L263.533,7.533h25.6L314.733,84.333z"/>
	</g>
	<g>
		<path d="M179.715,326.851c0.36,1.027,0.892,1.985,1.573,2.833c0.16,0.192,0.234,0.439,0.412,0.617l25.6,25.6
			c1.6,1.6,3.77,2.499,6.033,2.5h85.333c2.263-0.001,4.433-0.9,6.033-2.5l25.6-25.6c0.178-0.178,0.252-0.425,0.412-0.617
			c1.088-1.263,1.754-2.834,1.904-4.494c0.079-0.304,0.14-0.611,0.184-0.922v-85.333c0.001-0.918-0.147-1.83-0.438-2.7l-25.6-76.8
			c-0.224-0.58-0.511-1.133-0.858-1.649c-0.116-0.193-0.177-0.407-0.307-0.59c-0.582-0.815-1.305-1.519-2.133-2.082
			c-0.202-0.138-0.438-0.21-0.652-0.331c-0.683-0.391-1.418-0.683-2.183-0.869c-0.157-0.038-0.277-0.145-0.438-0.175
			c-0.197-0.035-0.38,0.034-0.577,0.013c-0.313-0.069-0.63-0.119-0.948-0.151h-85.333c-0.318,0.032-0.635,0.082-0.947,0.151
			c-0.197,0.021-0.381-0.048-0.578-0.013c-0.161,0.029-0.281,0.137-0.438,0.175c-0.765,0.186-1.5,0.478-2.183,0.869
			c-0.214,0.121-0.451,0.193-0.652,0.331c-0.829,0.562-1.551,1.267-2.133,2.082c-0.13,0.183-0.191,0.397-0.307,0.59
			c-0.346,0.516-0.634,1.069-0.858,1.649l-25.6,76.8c-0.29,0.871-0.438,1.782-0.437,2.7v85.333
			C179.372,325.128,179.543,325.989,179.715,326.851L179.715,326.851z M295.133,341.333h-78.267l-18.299-18.299l36.563-58.501
			h41.741l36.563,58.501L295.133,341.333z M256,170.667h32.442l-13.963,76.8h-36.958l-13.963-76.8H256z M315.733,294.512
			l-25.147-40.235l10.518-57.848l14.629,43.888V294.512z M210.896,196.429l10.518,57.848l-25.147,40.235v-54.196L210.896,196.429z"
			/>
		<path d="M443.733,253.735v-40.402c-0.009-9.422-7.645-17.057-17.067-17.067H409.6V153.6c0-4.713-3.821-8.533-8.533-8.533
			s-8.533,3.82-8.533,8.533v136.533h-17.067v-51.2c0.001-0.918-0.147-1.83-0.438-2.7l-76.8-230.4C297.067,2.349,293.806,0,290.133,0
			h-68.267c-3.673,0-6.934,2.349-8.096,5.833l-76.8,230.4c-0.291,0.871-0.438,1.782-0.438,2.7v51.2h-17.067V153.6
			c0-4.713-3.821-8.533-8.533-8.533c-4.713,0-8.533,3.82-8.533,8.533v42.667H85.333c-9.422,0.009-17.057,7.645-17.067,17.067v40.402
			L1.125,371.233C0.388,372.522,0,373.982,0,375.467V460.8c0,3.809,2.525,7.157,6.188,8.204l59.733,17.067
			c0.763,0.217,1.552,0.328,2.346,0.329h10.209c5.857,15.05,27.004,25.6,53.791,25.6s47.934-10.55,53.791-25.6h30.521l-1.037,5.183
			c-1.004,5.014,0.294,10.214,3.535,14.168c3.241,3.955,8.085,6.248,13.198,6.248h47.45c5.113,0,9.957-2.293,13.198-6.248
			c3.241-3.955,4.539-9.155,3.535-14.168l-1.037-5.183h30.521c5.857,15.05,27.004,25.6,53.791,25.6
			c26.787,0,47.934-10.55,53.791-25.6h10.209c0.793-0.001,1.583-0.112,2.346-0.329l59.733-17.067
			c3.663-1.047,6.188-4.395,6.188-8.204v-85.333c0-1.485-0.388-2.944-1.125-4.233L443.733,253.735z M426.667,247.467H409.6v-34.133
			h17.067V247.467z M379.733,349.867c23.442,0,38.4,10.108,38.4,17.067S403.175,384,379.733,384c-23.442,0-38.4-10.108-38.4-17.067
			S356.292,349.867,379.733,349.867z M392.533,307.2v26.47c-4.242-0.577-8.519-0.867-12.8-0.87c-1.445,0-2.855,0.064-4.267,0.124
			V307.2H392.533z M228.017,17.067h55.967l22.164,66.49C292.803,96.576,274.616,103.41,256,102.4
			c-18.617,1.015-36.807-5.823-50.144-18.851L228.017,17.067z M153.6,240.317l46.37-139.111
			c15.974,12.438,35.795,18.898,56.03,18.261c20.235,0.637,40.056-5.823,56.03-18.261l46.37,139.111v94.934
			c-20.282,4.911-33.94,16.782-34.112,31.407l-13.059,11.184c-4.638,3.973-10.543,6.157-16.65,6.158h-77.158
			c-6.109-0.002-12.016-2.187-16.654-6.163l-13.053-11.154c-0.156-14.637-13.82-26.518-34.114-31.432V240.317z M132.267,349.867
			c23.442,0,38.4,10.108,38.4,17.067S155.708,384,132.267,384s-38.4-10.108-38.4-17.067S108.825,349.867,132.267,349.867z
			 M136.533,307.2v25.724c-1.411-0.06-2.821-0.124-4.267-0.124c-4.281,0.003-8.558,0.294-12.8,0.87V307.2H136.533z M85.333,213.333
			H102.4v34.133H85.333V213.333z M17.067,454.363v-76.629l64.683-113.2h20.65v73.358c-15.595,5.908-25.6,16.46-25.6,29.042v102.4
			h-7.337L17.067,454.363z M132.267,494.933c-23.442,0-38.4-10.108-38.4-17.067V391.96c11.799,6.299,25.029,9.437,38.4,9.106
			c13.371,0.33,26.601-2.807,38.4-9.106v85.906C170.667,484.825,155.708,494.933,132.267,494.933z M232.275,494.933l13.654-68.267
			h20.142l13.675,68.267H232.275z M282.804,423.321c-1.608-7.969-8.604-13.705-16.733-13.721h-20.142
			c-8.128,0.016-15.123,5.749-16.733,13.717l-9.204,46.017h-32.259v-80.185l1.929,1.652c7.732,6.623,17.577,10.265,27.758,10.267
			h77.158c10.179-0.002,20.023-3.642,27.754-10.263l1.933-1.657v80.186h-32.259L282.804,423.321z M379.733,494.933
			c-23.442,0-38.4-10.108-38.4-17.067V391.96c11.799,6.299,25.029,9.437,38.4,9.106c13.371,0.33,26.601-2.807,38.4-9.106v85.906
			C418.133,484.825,403.175,494.933,379.733,494.933z M494.933,454.363l-52.396,14.971H435.2v-102.4
			c0-12.582-10.005-23.134-25.6-29.042v-73.358h20.65l64.683,113.2V454.363z"/>
	</g>
</g>
<g>
</g>
<g>
</g>
<g>
</g>
<g>
</g>
<g>
</g>
<g>
</g>
<g>
</g>
<g>
</g>
<g>
</g>
<g>
</g>
<g>
</g>
<g>
</g>
<g>
</g>
<g>
</g>
<g>
</g>
</svg>
