<?xml version="1.0" encoding="UTF-8"?>
<!DOCTYPE svg PUBLIC "-//W3C//DTD SVG 1.1//EN" "http://www.w3.org/Graphics/SVG/1.1/DTD/svg11.dtd">
<!-- Creator: CorelDRAW X8 -->
<svg xmlns="http://www.w3.org/2000/svg" xml:space="preserve" width="136.793mm" height="157.356mm" version="1.1" style="shape-rendering:geometricPrecision; text-rendering:geometricPrecision; image-rendering:optimizeQuality; fill-rule:evenodd; clip-rule:evenodd"
viewBox="0 0 6007 6910"
 xmlns:xlink="http://www.w3.org/1999/xlink">
 <defs>
  <style type="text/css">
   <![CDATA[
    .fil9 {fill:#FEFEFE;fill-rule:nonzero}
    .fil2 {fill:#F1F1F2;fill-rule:nonzero}
    .fil14 {fill:#F7FBFE;fill-rule:nonzero}
    .fil7 {fill:#E57E50;fill-rule:nonzero}
    .fil8 {fill:#C36246;fill-rule:nonzero}
    .fil13 {fill:#E5E6E5;fill-rule:nonzero}
    .fil10 {fill:#CBCDCD;fill-rule:nonzero}
    .fil11 {fill:#B4B6B7;fill-rule:nonzero}
    .fil12 {fill:#A9ABAC;fill-rule:nonzero}
    .fil6 {fill:#50A3D9;fill-rule:nonzero}
    .fil0 {fill:#2F2F35;fill-rule:nonzero}
    .fil5 {fill:#257BB6;fill-rule:nonzero}
    .fil4 {fill:#27597C;fill-rule:nonzero}
    .fil1 {fill:#283948;fill-rule:nonzero}
    .fil3 {fill:#2C435D;fill-rule:nonzero}
   ]]>
  </style>
 </defs>
 <g id="Layer_x0020_1">
  <metadata id="CorelCorpID_0Corel-Layer"/>
  <g id="_1808187806960">
   <polygon class="fil0" points="6007,5225 6007,1855 3089,170 170,1855 170,5225 3089,6910 "/>
   <polygon class="fil1" points="0,5055 0,1685 2918,0 5837,1685 5837,5055 2918,6740 "/>
   <polygon class="fil2" points="134,1762 2918,155 5703,1762 5703,4978 2918,6585 134,4978 "/>
   <polygon class="fil3" points="325,1873 2918,375 5512,1873 5512,4867 2918,6365 325,4867 "/>
   <polygon class="fil4" points="823,2160 2918,951 5014,2160 5014,4580 2918,5789 823,4580 "/>
   <polygon class="fil5" points="1283,2426 2918,1482 4554,2426 4554,4314 2918,5258 1283,4314 "/>
   <polygon class="fil6" points="1801,2725 2918,2079 4036,2725 4036,4015 2918,4661 1801,4015 "/>
   <path class="fil7" d="M5154 1666l-2236 -1291 -2242 1295c259,994 1163,1728 2239,1728 1077,0 1982,-736 2239,-1732z"/>
   <path class="fil8" d="M2988 3397c13,0 25,-1 38,-1 7,-1 14,-1 20,-2 12,0 24,-1 35,-2 7,0 14,-1 21,-1 12,-1 24,-2 36,-4 6,0 13,-1 19,-1 14,-2 28,-4 43,-5 3,-1 7,-1 11,-2 18,-2 36,-4 54,-7 4,-1 9,-2 14,-2 13,-2 26,-5 39,-7 6,-1 13,-2 19,-3 12,-2 23,-5 34,-7 7,-1 14,-3 20,-4 11,-2 23,-5 34,-7 6,-2 13,-3 19,-5 12,-3 24,-6 36,-9 6,-1 11,-2 16,-3 17,-5 34,-9 51,-14 3,-1 6,-2 10,-3 13,-4 27,-8 41,-12 6,-2 12,-4 18,-6 10,-3 21,-7 32,-11 7,-2 13,-4 20,-6 10,-4 20,-7 31,-11 6,-2 13,-5 19,-7 11,-4 21,-8 32,-12 6,-3 12,-5 17,-7 14,-6 29,-11 43,-17 2,-1 4,-2 6,-3 16,-7 31,-13 47,-21 6,-2 11,-5 16,-7 11,-5 21,-10 32,-15 6,-3 12,-6 18,-9 10,-4 19,-9 29,-14 6,-3 12,-6 19,-9 9,-5 19,-10 28,-15 6,-4 12,-7 18,-10 11,-6 21,-12 32,-18 4,-2 9,-5 13,-7 15,-9 29,-18 44,-26 5,-3 9,-6 14,-9 10,-6 20,-12 30,-19 6,-3 12,-7 18,-11 8,-6 17,-11 25,-17 6,-4 12,-8 19,-12 8,-6 16,-12 25,-18 6,-4 11,-8 17,-12 9,-7 18,-13 26,-19 6,-4 11,-8 16,-12 13,-10 27,-20 40,-30 3,-3 7,-6 10,-9 10,-8 20,-16 30,-24 5,-4 11,-8 16,-13 8,-7 16,-13 23,-20 6,-5 12,-10 17,-15 8,-6 15,-12 22,-19 6,-5 12,-10 17,-15 8,-7 15,-14 22,-21 5,-5 11,-10 16,-15 8,-8 17,-16 25,-24 4,-4 8,-8 12,-12 12,-12 23,-23 34,-35 5,-5 10,-10 15,-15 7,-8 13,-15 20,-22 6,-6 11,-12 16,-18 6,-7 12,-14 19,-21 5,-6 10,-12 15,-18 6,-7 12,-14 18,-21 5,-6 11,-12 15,-18 7,-8 13,-16 20,-24 4,-6 8,-11 13,-17 10,-12 20,-25 30,-38 4,-6 8,-12 12,-17 6,-9 12,-17 18,-25 5,-6 9,-13 14,-20 5,-7 10,-15 15,-22 5,-7 10,-14 14,-21 5,-7 10,-15 15,-22 5,-7 9,-14 14,-21 4,-8 9,-16 14,-24 4,-7 9,-13 13,-20 6,-10 12,-20 18,-30 5,-10 11,-19 16,-29 5,-9 11,-19 16,-28 4,-7 7,-14 11,-21 5,-9 9,-17 13,-25 4,-7 8,-15 12,-22 4,-8 8,-16 11,-24 4,-8 8,-15 12,-23 3,-8 7,-17 11,-25 3,-7 7,-15 10,-22 4,-9 8,-18 12,-28 4,-8 7,-16 11,-24 6,-14 11,-28 17,-41 3,-8 6,-15 8,-23 4,-9 7,-17 10,-26 3,-8 6,-16 9,-24 3,-9 6,-17 9,-26 3,-8 6,-16 8,-24 3,-9 6,-17 9,-26 2,-8 5,-16 7,-24 3,-9 6,-19 8,-28 3,-7 5,-15 7,-23 5,-16 9,-31 13,-47 0,0 0,-1 0,-1l-456 -263c-143,1044 -984,1866 -2037,1981 41,5 82,8 123,10 1,0 2,1 3,1 20,1 40,2 60,2 2,0 4,0 6,0 21,1 41,1 62,1 18,0 37,0 55,0 6,-1 12,-1 18,-1z"/>
   <path class="fil8" d="M2850 2570c0,-233 189,-423 423,-423 234,0 423,190 423,423 0,234 -189,423 -423,423 -234,0 -423,-189 -423,-423z"/>
   <path class="fil8" d="M2395 2799c0,-62 50,-112 111,-112 62,0 112,50 112,112 0,62 -50,112 -112,112 -61,0 -111,-50 -111,-112z"/>
   <path class="fil8" d="M1261 2023c0,-111 90,-200 200,-200 111,0 201,89 201,200 0,111 -90,200 -201,200 -110,0 -200,-89 -200,-200z"/>
   <path class="fil8" d="M1665 1384c0,-110 90,-200 200,-200 111,0 201,90 201,200 0,111 -90,200 -201,200 -110,0 -200,-89 -200,-200z"/>
   <path class="fil8" d="M4403 1574c0,-61 50,-111 112,-111 62,0 112,50 112,111 0,62 -50,112 -112,112 -62,0 -112,-50 -112,-112z"/>
   <path class="fil8" d="M3726 1712c0,-112 90,-202 202,-202 111,0 201,90 201,202 0,111 -90,201 -201,201 -112,0 -202,-90 -202,-201z"/>
   <path class="fil8" d="M1860 2407c0,-49 40,-89 88,-89 49,0 89,40 89,89 0,49 -40,88 -89,88 -48,0 -88,-39 -88,-88z"/>
   <path class="fil8" d="M2390 1037c0,-183 148,-331 331,-331 182,0 330,148 330,331 0,182 -148,330 -330,330 -183,0 -331,-148 -331,-330z"/>
   <path class="fil8" d="M3335 900c0,-41 33,-75 75,-75 41,0 74,34 74,75 0,41 -33,74 -74,74 -42,0 -75,-33 -75,-74z"/>
   <path class="fil8" d="M3223 2799c0,-67 55,-121 121,-121 67,0 121,54 121,121 0,67 -54,121 -121,121 -66,0 -121,-54 -121,-121z"/>
   <path class="fil9" d="M4489 3293l118 -26 -118 -27c-21,-5 -38,-21 -43,-43l-27 -118 -26 118c-5,22 -22,38 -43,43l-118 27 118 26c21,5 38,22 43,44l26 118 27 -118c5,-22 22,-39 43,-44z"/>
   <path class="fil9" d="M3785 4161l55 -13 -55 -12c-10,-2 -18,-10 -20,-20l-12 -55 -13 55c-2,10 -10,18 -20,20l-54 12 54 13c10,2 18,10 20,20l13 54 12 -54c2,-10 10,-18 20,-20z"/>
   <path class="fil9" d="M4579 4839l55 -13 -55 -12c-9,-2 -17,-10 -19,-20l-13 -55 -12 55c-2,10 -10,18 -20,20l-55 12 55 13c10,2 18,10 20,20l12 54 13 -54c2,-10 10,-18 19,-20z"/>
   <path class="fil9" d="M931 3165l183 -41 -183 -41c-33,-8 -59,-34 -67,-67l-41 -183 -41 183c-7,33 -33,59 -67,67l-182 41 182 41c34,8 60,34 67,67l41 183 41 -183c8,-33 34,-59 67,-67z"/>
   <path class="fil9" d="M1439 4456l148 -33 -148 -33c-27,-6 -47,-27 -54,-54l-33 -148 -33 148c-6,27 -27,48 -54,54l-148 33 148 33c27,6 48,27 54,54l33 148 33 -148c7,-27 27,-48 54,-54z"/>
   <path class="fil9" d="M5197 2508l148 -33 -148 -34c-27,-6 -48,-27 -54,-54l-33 -147 -33 147c-6,27 -27,48 -54,54l-148 34 148 33c27,6 48,27 54,54l33 148 33 -148c6,-27 27,-48 54,-54z"/>
   <path class="fil10" d="M3162 3523l0 -2151c-7,-235 -141,-378 -222,-443 -35,-29 -85,-29 -121,0 -80,65 -215,208 -222,443l0 2151 565 0z"/>
   <path class="fil10" d="M2533 4016l0 -1864c-5,-185 -155,-267 -155,-267 0,0 -149,82 -155,267l0 1864 -76 81 0 168 462 0 0 -168 -76 -81z"/>
   <path class="fil10" d="M3226 4016l0 -1864c6,-185 155,-267 155,-267 0,0 150,82 156,267l0 1864 75 81 0 168 -461 0 0 -168 75 -81z"/>
   <path class="fil11" d="M3612 4265l0 -168 -75 -81 0 -1864c-6,-185 -156,-267 -156,-267l0 2380 231 0z"/>
   <path class="fil11" d="M2147 4265l0 -168 76 -81 0 -1864c6,-185 155,-267 155,-267l0 2380 -231 0z"/>
   <polygon class="fil12" points="1542,3692 2561,3788 3199,3788 4218,3692 "/>
   <path class="fil13" d="M4218 3692l0 -159c0,-65 -36,-125 -94,-156l-146 -77c-543,-287 -884,-852 -884,-1467l0 -147c-5,-179 -107,-288 -168,-337 -27,-22 -65,-22 -92,0 -61,49 -163,158 -169,337l0 147c0,615 -340,1180 -884,1467l-146 77c-57,31 -93,91 -93,156l0 159 1123 0 0 14 -104 82 0 233 638 0 0 -233 -105 -82 0 -14 1124 0z"/>
   <path class="fil12" d="M1542 3533l0 76 1327 69 1349 -71 0 -74c0,-26 -6,-51 -17,-74l-2643 0c-10,23 -16,48 -16,74z"/>
   <path class="fil14" d="M3079 3808l0 -2130c-7,-160 -120,-263 -199,-315 -79,52 -193,155 -199,312l0 2133 398 0z"/>
   <polygon class="fil11" points="2680,2253 3080,2253 3080,2215 2680,2215 "/>
   <polygon class="fil11" points="2680,2614 3080,2614 3080,2576 2680,2576 "/>
   <polygon class="fil11" points="2680,3561 3080,3561 3080,3523 2680,3523 "/>
   <polygon class="fil11" points="2587,3951 3172,3951 3172,3913 2587,3913 "/>
   <path class="fil9" d="M2658 4445l0 479 -109 0 0 -324 -44 324 -77 0 -46 -316 0 316 -109 0 0 -479 161 0c5,28 10,62 15,102l18 122 28 -224 163 0z"/>
   <path class="fil9" d="M2857 4753c-6,-54 -12,-122 -19,-202 -12,92 -20,160 -24,202l43 0zm66 -308l72 479 -128 0 -6 -86 -45 0 -8 86 -129 0 64 -479 180 0z"/>
   <path class="fil9" d="M3141 4527l0 106c14,0 24,-2 29,-6 6,-3 9,-16 9,-37l0 -26c0,-16 -3,-26 -8,-30 -6,-5 -16,-7 -30,-7zm-125 -82l88 0c59,0 99,2 120,6 21,5 38,16 51,35 13,19 20,49 20,89 0,38 -5,63 -14,76 -10,13 -28,20 -55,23 24,6 41,14 50,24 8,11 13,20 15,29 2,8 4,32 4,71l0 126 -116 0 0 -159c0,-26 -2,-42 -6,-48 -4,-6 -15,-9 -32,-9l0 216 -125 0 0 -479z"/>
   <path class="fil9" d="M3607 4590l-116 0 0 -36c0,-16 -1,-27 -4,-32 -3,-4 -8,-6 -15,-6 -7,0 -13,3 -17,9 -4,6 -6,15 -6,28 0,16 2,28 7,36 4,8 16,18 35,29 55,33 90,60 105,81 14,22 22,56 22,103 0,34 -4,59 -12,75 -8,16 -24,30 -47,41 -23,11 -49,16 -80,16 -33,0 -62,-6 -85,-19 -24,-12 -39,-28 -47,-48 -7,-19 -11,-47 -11,-83l0 -32 116 0 0 59c0,18 2,29 5,34 3,6 9,8 17,8 9,0 15,-3 19,-10 4,-6 6,-16 6,-29 0,-28 -4,-46 -12,-55 -7,-9 -27,-23 -58,-44 -31,-20 -51,-35 -62,-44 -10,-10 -18,-23 -25,-39 -6,-16 -10,-37 -10,-63 0,-36 5,-63 15,-80 9,-17 24,-31 45,-40 21,-10 46,-15 76,-15 32,0 60,6 83,16 23,11 38,24 45,40 7,16 11,43 11,81l0 19z"/>
   <path class="fil9" d="M2313 5007l0 480 -109 0 0 -324 -43 324 -78 0 -45 -316 -1 316 -109 0 0 -480 162 0c5,29 10,63 15,102l17 122 29 -224 162 0z"/>
   <polygon class="fil9" points="2363,5487 2488,5487 2488,5007 2363,5007 "/>
   <path class="fil9" d="M2803 5152l-116 0 0 -35c0,-17 -2,-27 -5,-32 -3,-4 -8,-7 -15,-7 -7,0 -13,3 -17,10 -3,6 -5,15 -5,27 0,16 2,29 6,37 4,8 16,18 35,29 56,33 91,60 105,81 15,21 22,55 22,102 0,35 -4,60 -12,76 -8,16 -23,30 -46,41 -23,11 -50,16 -80,16 -34,0 -62,-6 -86,-19 -23,-13 -39,-29 -46,-48 -8,-20 -11,-47 -11,-83l0 -32 116 0 0 59c0,18 1,29 5,34 3,5 9,8 17,8 8,0 14,-3 18,-10 4,-6 6,-16 6,-29 0,-28 -3,-47 -11,-55 -8,-9 -27,-24 -58,-44 -31,-20 -52,-35 -62,-45 -10,-9 -19,-22 -25,-38 -7,-17 -10,-37 -10,-63 0,-37 5,-64 14,-81 9,-17 25,-30 45,-39 21,-10 47,-15 76,-15 33,0 60,5 83,16 23,10 38,24 46,39 7,16 11,43 11,81l0 19z"/>
   <path class="fil9" d="M3116 5152l-115 0 0 -35c0,-17 -2,-27 -5,-32 -3,-4 -8,-7 -15,-7 -7,0 -13,3 -17,10 -4,6 -6,15 -6,27 0,16 3,29 7,37 4,8 16,18 35,29 56,33 91,60 105,81 15,21 22,55 22,102 0,35 -4,60 -12,76 -8,16 -24,30 -47,41 -22,11 -49,16 -80,16 -33,0 -61,-6 -85,-19 -24,-13 -39,-29 -46,-48 -8,-20 -11,-47 -11,-83l0 -32 115 0 0 59c0,18 2,29 5,34 4,5 9,8 18,8 8,0 14,-3 18,-10 4,-6 6,-16 6,-29 0,-28 -4,-47 -11,-55 -8,-9 -28,-24 -59,-44 -31,-20 -51,-35 -61,-45 -10,-9 -19,-22 -25,-38 -7,-17 -10,-37 -10,-63 0,-37 4,-64 14,-81 9,-17 24,-30 45,-39 21,-10 47,-15 76,-15 33,0 60,5 83,16 23,10 38,24 45,39 8,16 11,43 11,81l0 19z"/>
   <polygon class="fil9" points="3166,5487 3291,5487 3291,5007 3166,5007 "/>
   <path class="fil9" d="M3501 5131c0,-23 -1,-37 -4,-43 -2,-6 -7,-10 -15,-10 -6,0 -11,3 -15,8 -3,5 -5,20 -5,45l0 224c0,27 1,45 3,51 3,7 8,10 16,10 9,0 14,-4 17,-11 2,-8 3,-26 3,-54l0 -220zm125 157c0,48 -1,83 -4,103 -2,20 -9,38 -21,55 -12,16 -28,29 -48,38 -21,9 -44,13 -71,13 -26,0 -49,-4 -70,-12 -20,-9 -37,-21 -49,-38 -12,-17 -20,-35 -22,-55 -3,-20 -4,-54 -4,-104l0 -82c0,-48 1,-82 4,-102 2,-20 9,-39 21,-55 12,-17 28,-30 48,-38 21,-9 44,-14 72,-14 25,0 48,4 69,13 20,8 37,21 49,38 13,16 20,35 22,54 3,20 4,55 4,104l0 82z"/>
   <polygon class="fil9" points="3951,5007 3951,5487 3842,5487 3777,5269 3777,5487 3672,5487 3672,5007 3777,5007 3847,5223 3847,5007 "/>
  </g>
 </g>
</svg>
